# xmcd
# 
# Track frame offsets:
#     150
#     22470
#     39835
# 
# Disc length: 825
# 
# Revision: 2
# Processed by: cddbd v1.5.2PL0 Copyright (c) Steve Scherf et al.
# Submitted via: BonkEnc v1.0
# 
DISCID=1f033703
DTITLE=Hayley Westenra - モーツァルトの子守歌
DYEAR=0
DGENRE=Classical
TTITLE0=モーツァルトの子守歌 (Slow version)
TTITLE1=モーツァルトの子守歌 (Fast version)
TTITLE2=モーツァルトの子守歌 (日本語 version)
EXTD=
EXTT0=
EXTT1=
EXTT2=
PLAYORDER=
